<svg width="25" height="25" viewBox="0 0 25 25" fill="none" xmlns="http://www.w3.org/2000/svg">
<g id="Arrow">
<path id="Vector" d="M12.5 22.4023C17.9688 22.4023 22.4023 17.9688 22.4023 12.5C22.4023 7.03125 17.9688 2.59766 12.5 2.59766C7.03125 2.59766 2.59766 7.03125 2.59766 12.5C2.59766 17.9687 7.03125 22.4023 12.5 22.4023ZM12.5 3.53516C17.4414 3.53516 21.4648 7.55859 21.4648 12.5C21.4648 17.4414 17.4414 21.4648 12.5 21.4648C7.55859 21.4648 3.53516 17.4414 3.53516 12.5C3.53516 7.55859 7.55859 3.53516 12.5 3.53516Z" fill="white"/>
<path id="Vector_2" d="M7.79297 12.9688L16.0742 12.9688L13.1055 15.9375C12.9297 16.1133 12.9297 16.4258 13.1055 16.6016C13.2812 16.7773 13.5938 16.7773 13.7695 16.6016L17.5586 12.832C17.5977 12.793 17.6367 12.7344 17.6562 12.6758C17.6953 12.5586 17.6953 12.4219 17.6562 12.3242C17.6367 12.2656 17.5977 12.207 17.5586 12.168L13.7695 8.39844C13.6719 8.30078 13.5547 8.26172 13.4375 8.26172C13.3203 8.26172 13.2031 8.30078 13.1055 8.39844C12.9297 8.57422 12.9297 8.88672 13.1055 9.0625L16.0742 12.0312H7.77344C7.51953 12.0312 7.30469 12.2461 7.30469 12.5C7.30469 12.7539 7.51953 12.9688 7.79297 12.9688Z" fill="white"/>
</g>
</svg>
