<svg width="40" height="40" viewBox="0 0 40 40" fill="none" xmlns="http://www.w3.org/2000/svg">
<rect width="40" height="40" rx="10" fill="#5AD78C"/>
<g clip-path="url(#clip0_89_133)">
<path d="M12.574 17.8764C12.1781 18.117 11.7246 18.246 11.2615 18.2501V28.7501H20.8865V18.0671C20.7377 18.0102 20.5855 17.9569 20.449 17.8755C20.0532 18.1163 19.5997 18.2458 19.1365 18.2501C18.6732 18.2458 18.2197 18.1163 17.824 17.8755C17.4282 18.1163 16.9747 18.2458 16.5115 18.2501C16.0482 18.2458 15.5947 18.1163 15.199 17.8755C14.8032 18.1163 14.3497 18.2458 13.8865 18.2501C13.4232 18.2458 12.9697 18.1163 12.574 17.8755V17.8764Z" fill="white"/>
<path d="M9.51214 15.6074V30.0343H10.3871V15.6074H9.51214ZM30.5121 15.6074V30.4999H22.3878V31.3749H30.9496C31.0657 31.3749 31.177 31.3288 31.259 31.2468C31.341 31.1647 31.3871 31.0535 31.3871 30.9374V15.6074H30.5121ZM10.3233 6.87488C10.2348 6.8751 10.1484 6.90212 10.0756 6.95242C10.0028 7.00272 9.94702 7.07396 9.91552 7.15665L6.91602 15.0316L7.73239 15.344L10.626 7.74902H30.2724L33.166 15.344L33.9824 15.0316L30.9838 7.15665L30.5734 7.74902V6.87402L10.3233 6.87488Z" fill="#1B4925"/>
<path d="M7.32471 29.624C7.20867 29.624 7.09739 29.6702 7.01535 29.7522C6.9333 29.8342 6.88721 29.9455 6.88721 30.0615V32.6865C6.88727 32.7788 6.91651 32.8687 6.97072 32.9433C7.02494 33.0179 7.10137 33.0736 7.18908 33.1022C7.20344 33.1071 7.21805 33.1111 7.23283 33.1144C7.26071 33.1207 7.28914 33.1243 7.31771 33.125C7.32004 33.125 7.32237 33.125 7.32471 33.125H22.1997C22.2291 33.125 22.2584 33.1221 22.2872 33.1162C22.386 33.0961 22.4748 33.0424 22.5386 32.9642C22.6024 32.8861 22.6372 32.7883 22.6372 32.6875V30.0625L22.6302 30.0711C22.6311 30.0137 22.6207 29.9567 22.5996 29.9032C22.5785 29.8498 22.547 29.8011 22.507 29.7598C22.4671 29.7185 22.4193 29.6855 22.3666 29.6627C22.3139 29.6399 22.2572 29.6276 22.1997 29.6267H7.32471V29.624ZM7.76221 30.499H21.7622V32.249H7.76221V30.499Z" fill="#1B4925"/>
<path d="M22.2051 30.499C22.1475 30.4998 22.0907 30.512 22.0379 30.5348C21.9851 30.5576 21.9373 30.5905 21.8972 30.6318C21.8571 30.6731 21.8256 30.7219 21.8044 30.7753C21.7832 30.8288 21.7728 30.886 21.7737 30.9436L21.7676 30.9348V32.6848C21.7676 32.8008 21.8137 32.9121 21.8957 32.9941C21.9778 33.0762 22.089 33.1223 22.2051 33.1223H31.3681V32.2473H22.6426V31.3723H31.3681V30.4973H22.2051V30.499Z" fill="#1B4925"/>
<path d="M30.9497 29.6242C30.8337 29.6242 30.7224 29.6703 30.6404 29.7524C30.5583 29.8344 30.5122 29.9457 30.5122 30.0617V32.6867C30.5123 32.779 30.5415 32.8688 30.5957 32.9435C30.6499 33.0181 30.7264 33.0738 30.8141 33.1024C30.8284 33.1073 30.8431 33.1113 30.8578 33.1146C30.8857 33.1209 30.9141 33.1244 30.9427 33.1252C30.945 33.1252 30.9474 33.1252 30.9497 33.1252H33.5747C33.6041 33.1252 33.6334 33.1223 33.6622 33.1164C33.761 33.0962 33.8498 33.0425 33.9136 32.9644C33.9774 32.8863 34.0122 32.7885 34.0122 32.6877V30.0627L34.0052 30.0713C34.0061 30.0139 33.9957 29.9568 33.9746 29.9034C33.9535 29.85 33.922 29.8012 33.882 29.76C33.8421 29.7187 33.7943 29.6857 33.7416 29.6629C33.6889 29.64 33.6322 29.6278 33.5747 29.6269H30.9497V29.6242ZM31.3872 30.4992H33.1372V32.2492H31.3872V30.4992ZM9.93396 15.1692C9.81808 15.171 9.70766 15.2188 9.62695 15.302C9.54624 15.3851 9.50182 15.497 9.50346 15.6129V30.0066C9.50346 30.1226 9.54955 30.234 9.6316 30.316C9.71365 30.3981 9.82493 30.4441 9.94096 30.4441C10.057 30.4441 10.1683 30.3981 10.2503 30.316C10.3324 30.234 10.3785 30.1226 10.3785 30.0066V15.6129C10.3792 15.5544 10.3681 15.4964 10.346 15.4422C10.3239 15.388 10.2912 15.3389 10.2497 15.2976C10.2083 15.2563 10.159 15.2238 10.1048 15.2019C10.0505 15.18 9.99245 15.1692 9.93396 15.1702V15.1692ZM22.2015 16.4362C22.1439 16.437 22.0871 16.4492 22.0343 16.472C21.9815 16.4948 21.9336 16.5278 21.8936 16.5691C21.8535 16.6103 21.822 16.6591 21.8008 16.7126C21.7796 16.7661 21.7692 16.8232 21.7701 16.8807V30.9367C21.7701 31.0527 21.8162 31.1641 21.8982 31.2461C21.9803 31.3282 22.0916 31.3742 22.2076 31.3742C22.3236 31.3742 22.4349 31.3282 22.5169 31.2461C22.599 31.1641 22.6451 31.0527 22.6451 30.9367V16.8807C22.646 16.8222 22.6352 16.764 22.6133 16.7097C22.5913 16.6554 22.5587 16.6061 22.5173 16.5647C22.4759 16.5232 22.4267 16.4905 22.3724 16.4684C22.3182 16.4464 22.26 16.4354 22.2015 16.4362ZM23.9497 21.7492C23.8337 21.7492 23.7224 21.7953 23.6404 21.8774C23.5583 21.9594 23.5122 22.0707 23.5122 22.1867V30.9367C23.5122 31.0527 23.5583 31.1641 23.6404 31.2461C23.7224 31.3282 23.8337 31.3742 23.9497 31.3742H29.1997C29.3157 31.3742 29.427 31.3282 29.5091 31.2461C29.5911 31.1641 29.6372 31.0527 29.6372 30.9367V21.7283L29.1997 21.7458L23.9497 21.7492ZM24.3872 22.6242H28.7622V30.4992H24.3872V22.6242Z" fill="#1B4925"/>
<path d="M7.31774 14.7525C7.20201 14.7543 7.09173 14.802 7.01104 14.8849C6.93035 14.9679 6.88584 15.0795 6.88724 15.1952V15.624C6.88724 16.5865 7.67474 17.374 8.63724 17.374C9.59886 17.374 10.3872 16.5865 10.3872 15.624C10.3872 15.5079 10.3411 15.3967 10.2591 15.3146C10.1771 15.2326 10.0658 15.1865 9.94974 15.1865C9.83371 15.1865 9.72243 15.2326 9.64038 15.3146C9.55833 15.3967 9.51224 15.5079 9.51224 15.624C9.51224 16.1166 9.12899 16.499 8.63724 16.499C8.14461 16.499 7.76224 16.1166 7.76224 15.624V15.1952C7.76295 15.1367 7.75192 15.0787 7.72981 15.0245C7.7077 14.9704 7.67496 14.9213 7.63352 14.88C7.59208 14.8388 7.54278 14.8061 7.48854 14.7842C7.4343 14.7623 7.37622 14.7516 7.31774 14.7525Z" fill="black"/>
<path d="M9.94274 15.1812C9.82701 15.1831 9.71673 15.2307 9.63604 15.3137C9.55535 15.3966 9.51084 15.5082 9.51224 15.6239C9.51224 16.5864 10.2997 17.3739 11.2622 17.3739C12.2239 17.3739 13.0122 16.5864 13.0122 15.6239C13.0122 15.5079 12.9661 15.3967 12.8841 15.3146C12.8021 15.2326 12.6908 15.1864 12.5747 15.1864C12.4587 15.1864 12.3474 15.2326 12.2654 15.3146C12.1833 15.3967 12.1372 15.5079 12.1372 15.6239C12.1372 16.1166 11.754 16.4989 11.2622 16.4989C10.7696 16.4989 10.3872 16.1166 10.3872 15.6239C10.3879 15.5655 10.3769 15.5074 10.3548 15.4533C10.3327 15.3991 10.3 15.35 10.2585 15.3087C10.2171 15.2675 10.1678 15.2348 10.1135 15.2129C10.0593 15.191 10.0012 15.1803 9.94274 15.1812Z" fill="black"/>
<path d="M12.5677 15.1812C12.452 15.1831 12.3417 15.2307 12.261 15.3137C12.1804 15.3966 12.1358 15.5082 12.1372 15.6239C12.1372 16.5864 12.9247 17.3739 13.8872 17.3739C14.8489 17.3739 15.6372 16.5864 15.6372 15.6239C15.6372 15.5079 15.5911 15.3967 15.5091 15.3146C15.4271 15.2326 15.3158 15.1864 15.1997 15.1864C15.0837 15.1864 14.9724 15.2326 14.8904 15.3146C14.8083 15.3967 14.7622 15.5079 14.7622 15.6239C14.7622 16.1166 14.379 16.4989 13.8872 16.4989C13.3946 16.4989 13.0122 16.1166 13.0122 15.6239C13.0129 15.5655 13.0019 15.5074 12.9798 15.4533C12.9577 15.3991 12.925 15.35 12.8835 15.3087C12.8421 15.2675 12.7928 15.2348 12.7385 15.2129C12.6843 15.191 12.6262 15.1803 12.5677 15.1812Z" fill="black"/>
<path d="M15.1927 15.1812C15.077 15.1831 14.9667 15.2307 14.886 15.3137C14.8054 15.3966 14.7608 15.5082 14.7622 15.6239C14.7622 16.5864 15.5497 17.3739 16.5122 17.3739C17.4739 17.3739 18.2622 16.5864 18.2622 15.6239C18.2622 15.5079 18.2161 15.3967 18.1341 15.3146C18.0521 15.2326 17.9408 15.1864 17.8247 15.1864C17.7087 15.1864 17.5974 15.2326 17.5154 15.3146C17.4333 15.3967 17.3872 15.5079 17.3872 15.6239C17.3872 16.1166 17.004 16.4989 16.5122 16.4989C16.0196 16.4989 15.6372 16.1166 15.6372 15.6239C15.6379 15.5655 15.6269 15.5074 15.6048 15.4533C15.5827 15.3991 15.55 15.35 15.5085 15.3087C15.4671 15.2675 15.4178 15.2348 15.3635 15.2129C15.3093 15.191 15.2512 15.1803 15.1927 15.1812Z" fill="black"/>
<path d="M17.8177 15.1812C17.702 15.1831 17.5917 15.2307 17.511 15.3137C17.4304 15.3966 17.3858 15.5082 17.3872 15.6239C17.3872 16.5864 18.1747 17.3739 19.1372 17.3739C20.0989 17.3739 20.8872 16.5864 20.8872 15.6239C20.8872 15.5079 20.8411 15.3967 20.7591 15.3146C20.6771 15.2326 20.5658 15.1864 20.4497 15.1864C20.3337 15.1864 20.2224 15.2326 20.1404 15.3146C20.0583 15.3967 20.0122 15.5079 20.0122 15.6239C20.0122 16.1166 19.629 16.4989 19.1372 16.4989C18.6446 16.4989 18.2622 16.1166 18.2622 15.6239C18.2629 15.5655 18.2519 15.5074 18.2298 15.4533C18.2077 15.3991 18.175 15.35 18.1335 15.3087C18.0921 15.2675 18.0428 15.2348 17.9885 15.2129C17.9343 15.191 17.8762 15.1803 17.8177 15.1812Z" fill="black"/>
<path d="M20.4427 15.1812C20.327 15.1831 20.2167 15.2307 20.136 15.3137C20.0554 15.3966 20.0108 15.5082 20.0122 15.6239C20.0122 16.5864 20.7997 17.3739 21.7622 17.3739C22.7239 17.3739 23.5122 16.5864 23.5122 15.6239C23.5122 15.5079 23.4661 15.3967 23.3841 15.3146C23.3021 15.2326 23.1908 15.1864 23.0747 15.1864C22.9587 15.1864 22.8474 15.2326 22.7654 15.3146C22.6833 15.3967 22.6372 15.5079 22.6372 15.6239C22.6372 16.1166 22.254 16.4989 21.7622 16.4989C21.2696 16.4989 20.8872 16.1166 20.8872 15.6239C20.8879 15.5655 20.8769 15.5074 20.8548 15.4533C20.8327 15.3991 20.8 15.35 20.7585 15.3087C20.7171 15.2675 20.6678 15.2348 20.6135 15.2129C20.5593 15.191 20.5012 15.1803 20.4427 15.1812Z" fill="black"/>
<path d="M23.0677 15.1812C22.952 15.1831 22.8417 15.2307 22.761 15.3137C22.6804 15.3966 22.6358 15.5082 22.6372 15.6239C22.6372 16.5864 23.4247 17.3739 24.3872 17.3739C25.3489 17.3739 26.1372 16.5864 26.1372 15.6239C26.1372 15.5079 26.0911 15.3967 26.0091 15.3146C25.9271 15.2326 25.8158 15.1864 25.6997 15.1864C25.5837 15.1864 25.4724 15.2326 25.3904 15.3146C25.3083 15.3967 25.2622 15.5079 25.2622 15.6239C25.2622 16.1166 24.879 16.4989 24.3872 16.4989C23.8946 16.4989 23.5122 16.1166 23.5122 15.6239C23.5129 15.5655 23.5019 15.5074 23.4798 15.4533C23.4577 15.3991 23.425 15.35 23.3835 15.3087C23.3421 15.2675 23.2928 15.2348 23.2385 15.2129C23.1843 15.191 23.1262 15.1803 23.0677 15.1812Z" fill="black"/>
<path d="M25.6927 15.1812C25.577 15.1831 25.4667 15.2307 25.386 15.3137C25.3054 15.3966 25.2608 15.5082 25.2622 15.6239C25.2622 16.5864 26.0497 17.3739 27.0122 17.3739C27.9739 17.3739 28.7622 16.5864 28.7622 15.6239C28.7622 15.5079 28.7161 15.3967 28.6341 15.3146C28.5521 15.2326 28.4408 15.1864 28.3247 15.1864C28.2087 15.1864 28.0974 15.2326 28.0154 15.3146C27.9333 15.3967 27.8872 15.5079 27.8872 15.6239C27.8872 16.1166 27.504 16.4989 27.0122 16.4989C26.5196 16.4989 26.1372 16.1166 26.1372 15.6239C26.1379 15.5655 26.1269 15.5074 26.1048 15.4533C26.0827 15.3991 26.05 15.35 26.0085 15.3087C25.9671 15.2675 25.9178 15.2348 25.8635 15.2129C25.8093 15.191 25.7512 15.1803 25.6927 15.1812Z" fill="black"/>
<path d="M28.3177 15.1812C28.202 15.1831 28.0917 15.2307 28.011 15.3137C27.9304 15.3966 27.8858 15.5082 27.8872 15.6239C27.8872 16.5864 28.6747 17.3739 29.6372 17.3739C30.5989 17.3739 31.3872 16.5864 31.3872 15.6239C31.3872 15.5079 31.3411 15.3967 31.2591 15.3146C31.1771 15.2326 31.0658 15.1864 30.9497 15.1864C30.8337 15.1864 30.7224 15.2326 30.6404 15.3146C30.5583 15.3967 30.5122 15.5079 30.5122 15.6239C30.5122 16.1166 30.129 16.4989 29.6372 16.4989C29.1446 16.4989 28.7622 16.1166 28.7622 15.6239C28.7629 15.5655 28.7519 15.5074 28.7298 15.4533C28.7077 15.3991 28.675 15.35 28.6335 15.3087C28.5921 15.2675 28.5428 15.2348 28.4885 15.2129C28.4343 15.191 28.3762 15.1803 28.3177 15.1812Z" fill="black"/>
<path d="M33.5677 14.7071C33.4518 14.7089 33.3414 14.7567 33.2607 14.8399C33.18 14.923 33.1356 15.0348 33.1372 15.1507V15.6241C33.1372 16.1167 32.754 16.4991 32.2622 16.4991C31.7696 16.4991 31.3872 16.1167 31.3872 15.6241C31.3872 15.508 31.3411 15.3968 31.2591 15.3147C31.177 15.2327 31.0657 15.1866 30.9497 15.1866C30.8337 15.1866 30.7224 15.2327 30.6403 15.3147C30.5583 15.3968 30.5122 15.508 30.5122 15.6241C30.5122 16.5866 31.2997 17.3741 32.2622 17.3741C33.2238 17.3741 34.0122 16.5866 34.0122 15.6241V15.1516C34.0132 15.093 34.0023 15.0348 33.9803 14.9804C33.9583 14.9261 33.9256 14.8766 33.8841 14.8352C33.8427 14.7937 33.7933 14.761 33.7389 14.739C33.6846 14.717 33.6263 14.7061 33.5677 14.7071Z" fill="black"/>
<path fill-rule="evenodd" clip-rule="evenodd" d="M25.2624 25.2491V26.9991H26.1374V25.2491H25.2624ZM13.4954 18.9299L11.7454 22.4299L12.5285 22.8211L14.2785 19.3211L13.4954 18.9299ZM15.2454 20.6799L13.0579 25.0549L13.841 25.4461L16.0285 21.0711L15.2454 20.6799Z" fill="white"/>
<path d="M10.3233 6.87402C10.2347 6.87431 10.1483 6.90148 10.0755 6.95194C10.0026 7.00241 9.94688 7.07379 9.91552 7.15665L6.91602 15.0316L7.73239 15.344L10.626 7.74902H30.2724L33.166 15.344L33.9824 15.0316L30.9838 7.15665L30.9785 7.16535C30.9483 7.08177 30.8934 7.0094 30.821 6.95782C30.7486 6.90623 30.6623 6.87793 30.5734 6.87664H10.3224L10.3233 6.87402Z" fill="#1B4925"/>
<path d="M7.31774 14.7525C7.20201 14.7543 7.09173 14.802 7.01104 14.8849C6.93035 14.9679 6.88584 15.0795 6.88724 15.1952V15.624C6.88724 16.5865 7.67474 17.374 8.63724 17.374C9.59886 17.374 10.3872 16.5865 10.3872 15.624C10.3872 15.5079 10.3411 15.3967 10.2591 15.3146C10.1771 15.2326 10.0658 15.1865 9.94974 15.1865C9.83371 15.1865 9.72243 15.2326 9.64038 15.3146C9.55833 15.3967 9.51224 15.5079 9.51224 15.624C9.51224 16.1166 9.12899 16.499 8.63724 16.499C8.14461 16.499 7.76224 16.1166 7.76224 15.624V15.1952C7.76295 15.1367 7.75192 15.0787 7.72981 15.0245C7.7077 14.9704 7.67496 14.9213 7.63352 14.88C7.59208 14.8388 7.54278 14.8061 7.48854 14.7842C7.4343 14.7623 7.37622 14.7516 7.31774 14.7525Z" fill="#1B4925"/>
<path d="M9.94274 15.1812C9.82701 15.1831 9.71673 15.2307 9.63604 15.3137C9.55535 15.3966 9.51084 15.5082 9.51224 15.6239C9.51224 16.5864 10.2997 17.3739 11.2622 17.3739C12.2239 17.3739 13.0122 16.5864 13.0122 15.6239C13.0122 15.5079 12.9661 15.3967 12.8841 15.3146C12.8021 15.2326 12.6908 15.1864 12.5747 15.1864C12.4587 15.1864 12.3474 15.2326 12.2654 15.3146C12.1833 15.3967 12.1372 15.5079 12.1372 15.6239C12.1372 16.1166 11.754 16.4989 11.2622 16.4989C10.7696 16.4989 10.3872 16.1166 10.3872 15.6239C10.3879 15.5655 10.3769 15.5074 10.3548 15.4533C10.3327 15.3991 10.3 15.35 10.2585 15.3087C10.2171 15.2675 10.1678 15.2348 10.1135 15.2129C10.0593 15.191 10.0012 15.1803 9.94274 15.1812Z" fill="#1B4925"/>
<path d="M12.5677 15.1812C12.452 15.1831 12.3417 15.2307 12.261 15.3137C12.1804 15.3966 12.1358 15.5082 12.1372 15.6239C12.1372 16.5864 12.9247 17.3739 13.8872 17.3739C14.8489 17.3739 15.6372 16.5864 15.6372 15.6239C15.6372 15.5079 15.5911 15.3967 15.5091 15.3146C15.4271 15.2326 15.3158 15.1864 15.1997 15.1864C15.0837 15.1864 14.9724 15.2326 14.8904 15.3146C14.8083 15.3967 14.7622 15.5079 14.7622 15.6239C14.7622 16.1166 14.379 16.4989 13.8872 16.4989C13.3946 16.4989 13.0122 16.1166 13.0122 15.6239C13.0129 15.5655 13.0019 15.5074 12.9798 15.4533C12.9577 15.3991 12.925 15.35 12.8835 15.3087C12.8421 15.2675 12.7928 15.2348 12.7385 15.2129C12.6843 15.191 12.6262 15.1803 12.5677 15.1812Z" fill="#1B4925"/>
<path d="M15.1927 15.1812C15.077 15.1831 14.9667 15.2307 14.886 15.3137C14.8054 15.3966 14.7608 15.5082 14.7622 15.6239C14.7622 16.5864 15.5497 17.3739 16.5122 17.3739C17.4739 17.3739 18.2622 16.5864 18.2622 15.6239C18.2622 15.5079 18.2161 15.3967 18.1341 15.3146C18.0521 15.2326 17.9408 15.1864 17.8247 15.1864C17.7087 15.1864 17.5974 15.2326 17.5154 15.3146C17.4333 15.3967 17.3872 15.5079 17.3872 15.6239C17.3872 16.1166 17.004 16.4989 16.5122 16.4989C16.0196 16.4989 15.6372 16.1166 15.6372 15.6239C15.6379 15.5655 15.6269 15.5074 15.6048 15.4533C15.5827 15.3991 15.55 15.35 15.5085 15.3087C15.4671 15.2675 15.4178 15.2348 15.3635 15.2129C15.3093 15.191 15.2512 15.1803 15.1927 15.1812Z" fill="#1B4925"/>
<path d="M17.8177 15.1812C17.702 15.1831 17.5917 15.2307 17.511 15.3137C17.4304 15.3966 17.3858 15.5082 17.3872 15.6239C17.3872 16.5864 18.1747 17.3739 19.1372 17.3739C20.0989 17.3739 20.8872 16.5864 20.8872 15.6239C20.8872 15.5079 20.8411 15.3967 20.7591 15.3146C20.6771 15.2326 20.5658 15.1864 20.4497 15.1864C20.3337 15.1864 20.2224 15.2326 20.1404 15.3146C20.0583 15.3967 20.0122 15.5079 20.0122 15.6239C20.0122 16.1166 19.629 16.4989 19.1372 16.4989C18.6446 16.4989 18.2622 16.1166 18.2622 15.6239C18.2629 15.5655 18.2519 15.5074 18.2298 15.4533C18.2077 15.3991 18.175 15.35 18.1335 15.3087C18.0921 15.2675 18.0428 15.2348 17.9885 15.2129C17.9343 15.191 17.8762 15.1803 17.8177 15.1812Z" fill="#1B4925"/>
<path d="M20.4427 15.1812C20.327 15.1831 20.2167 15.2307 20.136 15.3137C20.0554 15.3966 20.0108 15.5082 20.0122 15.6239C20.0122 16.5864 20.7997 17.3739 21.7622 17.3739C22.7239 17.3739 23.5122 16.5864 23.5122 15.6239C23.5122 15.5079 23.4661 15.3967 23.3841 15.3146C23.3021 15.2326 23.1908 15.1864 23.0747 15.1864C22.9587 15.1864 22.8474 15.2326 22.7654 15.3146C22.6833 15.3967 22.6372 15.5079 22.6372 15.6239C22.6372 16.1166 22.254 16.4989 21.7622 16.4989C21.2696 16.4989 20.8872 16.1166 20.8872 15.6239C20.8879 15.5655 20.8769 15.5074 20.8548 15.4533C20.8327 15.3991 20.8 15.35 20.7585 15.3087C20.7171 15.2675 20.6678 15.2348 20.6135 15.2129C20.5593 15.191 20.5012 15.1803 20.4427 15.1812Z" fill="#1B4925"/>
<path d="M23.0677 15.1812C22.952 15.1831 22.8417 15.2307 22.761 15.3137C22.6804 15.3966 22.6358 15.5082 22.6372 15.6239C22.6372 16.5864 23.4247 17.3739 24.3872 17.3739C25.3489 17.3739 26.1372 16.5864 26.1372 15.6239C26.1372 15.5079 26.0911 15.3967 26.0091 15.3146C25.9271 15.2326 25.8158 15.1864 25.6997 15.1864C25.5837 15.1864 25.4724 15.2326 25.3904 15.3146C25.3083 15.3967 25.2622 15.5079 25.2622 15.6239C25.2622 16.1166 24.879 16.4989 24.3872 16.4989C23.8946 16.4989 23.5122 16.1166 23.5122 15.6239C23.5129 15.5655 23.5019 15.5074 23.4798 15.4533C23.4577 15.3991 23.425 15.35 23.3835 15.3087C23.3421 15.2675 23.2928 15.2348 23.2385 15.2129C23.1843 15.191 23.1262 15.1803 23.0677 15.1812Z" fill="#1B4925"/>
<path d="M25.6927 15.1812C25.577 15.1831 25.4667 15.2307 25.386 15.3137C25.3054 15.3966 25.2608 15.5082 25.2622 15.6239C25.2622 16.5864 26.0497 17.3739 27.0122 17.3739C27.9739 17.3739 28.7622 16.5864 28.7622 15.6239C28.7622 15.5079 28.7161 15.3967 28.6341 15.3146C28.5521 15.2326 28.4408 15.1864 28.3247 15.1864C28.2087 15.1864 28.0974 15.2326 28.0154 15.3146C27.9333 15.3967 27.8872 15.5079 27.8872 15.6239C27.8872 16.1166 27.504 16.4989 27.0122 16.4989C26.5196 16.4989 26.1372 16.1166 26.1372 15.6239C26.1379 15.5655 26.1269 15.5074 26.1048 15.4533C26.0827 15.3991 26.05 15.35 26.0085 15.3087C25.9671 15.2675 25.9178 15.2348 25.8635 15.2129C25.8093 15.191 25.7512 15.1803 25.6927 15.1812Z" fill="#1B4925"/>
<path d="M28.3177 15.1812C28.202 15.1831 28.0917 15.2307 28.011 15.3137C27.9304 15.3966 27.8858 15.5082 27.8872 15.6239C27.8872 16.5864 28.6747 17.3739 29.6372 17.3739C30.5989 17.3739 31.3872 16.5864 31.3872 15.6239C31.3872 15.5079 31.3411 15.3967 31.2591 15.3146C31.1771 15.2326 31.0658 15.1864 30.9497 15.1864C30.8337 15.1864 30.7224 15.2326 30.6404 15.3146C30.5583 15.3967 30.5122 15.5079 30.5122 15.6239C30.5122 16.1166 30.129 16.4989 29.6372 16.4989C29.1446 16.4989 28.7622 16.1166 28.7622 15.6239C28.7629 15.5655 28.7519 15.5074 28.7298 15.4533C28.7077 15.3991 28.675 15.35 28.6335 15.3087C28.5921 15.2675 28.5428 15.2348 28.4885 15.2129C28.4343 15.191 28.3762 15.1803 28.3177 15.1812Z" fill="#1B4925"/>
<path d="M33.5677 14.7071C33.4518 14.7089 33.3414 14.7567 33.2607 14.8399C33.18 14.923 33.1356 15.0348 33.1372 15.1507V15.6241C33.1372 16.1167 32.754 16.4991 32.2622 16.4991C31.7696 16.4991 31.3872 16.1167 31.3872 15.6241C31.3872 15.508 31.3411 15.3968 31.2591 15.3147C31.177 15.2327 31.0657 15.1866 30.9497 15.1866C30.8337 15.1866 30.7224 15.2327 30.6403 15.3147C30.5583 15.3968 30.5122 15.508 30.5122 15.6241C30.5122 16.5866 31.2997 17.3741 32.2622 17.3741C33.2238 17.3741 34.0122 16.5866 34.0122 15.6241V15.1516C34.0132 15.093 34.0023 15.0348 33.9803 14.9804C33.9583 14.9261 33.9256 14.8766 33.8841 14.8352C33.8427 14.7937 33.7933 14.761 33.7389 14.739C33.6846 14.717 33.6263 14.7061 33.5677 14.7071Z" fill="#1B4925"/>
<path d="M11.2291 8.625L8.80535 14.9862C8.91889 14.7824 9.0847 14.6126 9.28572 14.4941C9.48673 14.3757 9.71567 14.3131 9.94897 14.3126C10.2971 14.3126 10.6309 14.4508 10.8771 14.697C11.1232 14.9431 11.2615 15.277 11.2615 15.6251C11.2615 15.277 11.3998 14.9431 11.6459 14.697C11.892 14.4508 12.2259 14.3126 12.574 14.3126C12.9221 14.3126 13.2559 14.4508 13.5021 14.697C13.7482 14.9431 13.8865 15.277 13.8865 15.6251C13.8865 15.277 14.0248 14.9431 14.2709 14.697C14.517 14.4508 14.8509 14.3126 15.199 14.3126C15.5471 14.3126 15.8809 14.4508 16.1271 14.697C16.3732 14.9431 16.5115 15.277 16.5115 15.6251C16.5115 15.277 16.6498 14.9431 16.8959 14.697C17.142 14.4508 17.4759 14.3126 17.824 14.3126C18.1721 14.3126 18.5059 14.4508 18.7521 14.697C18.9982 14.9431 19.1365 15.277 19.1365 15.6251C19.1365 15.277 19.2748 14.9431 19.5209 14.697C19.767 14.4508 20.1009 14.3126 20.449 14.3126C20.7971 14.3126 21.1309 14.4508 21.3771 14.697C21.6232 14.9431 21.7615 15.277 21.7615 15.6251C21.7615 15.277 21.8998 14.9431 22.1459 14.697C22.392 14.4508 22.7259 14.3126 23.074 14.3126C23.4221 14.3126 23.7559 14.4508 24.0021 14.697C24.2482 14.9431 24.3865 15.277 24.3865 15.6251C24.3865 15.277 24.5248 14.9431 24.7709 14.697C25.017 14.4508 25.3509 14.3126 25.699 14.3126C26.0471 14.3126 26.3809 14.4508 26.6271 14.697C26.8732 14.9431 27.0115 15.277 27.0115 15.6251C27.0115 15.277 27.1498 14.9431 27.3959 14.697C27.642 14.4508 27.9759 14.3126 28.324 14.3126C28.6721 14.3126 29.0059 14.4508 29.2521 14.697C29.4982 14.9431 29.6365 15.277 29.6365 15.6251C29.6363 15.5988 29.6369 15.5725 29.6382 15.5462C29.6559 15.2638 29.7644 14.9948 29.9475 14.7791C30.1306 14.5634 30.3785 14.4127 30.6543 14.3493C30.93 14.2859 31.2188 14.3133 31.4777 14.4275C31.7366 14.5416 31.9517 14.7365 32.0908 14.9828L29.6697 8.625H11.2291ZM8.66797 15.3485L8.63647 15.4308V15.6084C8.63829 15.5209 8.64884 15.4339 8.66797 15.3485ZM32.2317 15.3485C32.2503 15.4339 32.2602 15.521 32.2615 15.6084V15.4299L32.2308 15.3477L32.2317 15.3485ZM32.2615 15.6251C32.2615 15.6548 32.23 15.6722 32.2291 15.702H32.2606L32.2615 15.6251Z" fill="white"/>
<path fill-rule="evenodd" clip-rule="evenodd" d="M25.2615 24.375V23.5H27.8865V29.625H25.2615V27.875H27.0115V24.375H25.2615Z" fill="white"/>
<path d="M25.699 17.8764C25.3031 18.117 24.8496 18.246 24.3865 18.2501C24.0767 18.2501 23.788 18.173 23.5115 18.0671V20.8759H29.6365V18.2509C29.1731 18.2464 28.7197 18.1166 28.324 17.8755C27.9282 18.1163 27.4747 18.2458 27.0115 18.2501C26.5482 18.2458 26.0947 18.1163 25.699 17.8755V17.8764Z" fill="white"/>
</g>
<defs>
<clipPath id="clip0_89_133">
<rect width="28" height="28" fill="white" transform="translate(6 6)"/>
</clipPath>
</defs>
</svg>
