<svg width="40" height="40" viewBox="0 0 40 40" fill="none" xmlns="http://www.w3.org/2000/svg">
<rect width="40" height="40" rx="10" fill="#5AD78C"/>
<g clip-path="url(#clip0_39_387)">
<path d="M19.9969 16.2097C16.1144 17.4499 12.7064 19.8525 10.2338 23.0926C8.59942 25.3376 7.73597 27.8909 8.4329 30.4196C8.53774 30.8143 8.69193 31.2213 8.88312 31.6222H31.1168C31.308 31.2152 31.456 30.8204 31.567 30.4196C32.2578 27.8909 31.4005 25.3376 29.7661 23.0926C27.292 19.8515 23.8817 17.4488 19.9969 16.2097ZM16.3581 16.5551C17.5299 15.9384 18.7017 15.4573 19.8119 15.1489C19.9162 15.1089 20.0305 15.1024 20.1387 15.1304C21.255 15.4388 22.4515 15.926 23.6419 16.5551C26.2445 17.9305 28.8534 20.0212 30.6296 22.4574C32.4428 24.9552 33.3926 27.8231 32.6032 30.7033C32.449 31.2583 32.2331 31.8257 31.9371 32.3746C31.895 32.4704 31.8259 32.5517 31.7383 32.6087C31.6506 32.6656 31.5482 32.6958 31.4437 32.6954H8.56858C8.46864 32.6997 8.36949 32.676 8.2823 32.627C8.19512 32.5779 8.12338 32.5055 8.07518 32.4178C7.78709 31.875 7.55959 31.302 7.39676 30.7094C6.60733 27.8231 7.55095 24.9614 9.37035 22.4635C11.2376 20.0066 13.6235 17.9852 16.3581 16.5551Z" fill="#1B4925"/>
<path d="M4.74473 31.616C4.60161 31.616 4.46434 31.6729 4.36314 31.7741C4.26193 31.8753 4.20508 32.0126 4.20508 32.1557C4.20508 32.2988 4.26193 32.4361 4.36314 32.5373C4.46434 32.6385 4.60161 32.6953 4.74473 32.6953H35.249C35.3913 32.6953 35.5278 32.6388 35.6284 32.5382C35.729 32.4376 35.7856 32.3011 35.7856 32.1588C35.7856 32.0165 35.729 31.88 35.6284 31.7794C35.5278 31.6787 35.3913 31.6222 35.249 31.6222H4.7509L4.74473 31.616ZM19.4665 15.6238C19.4665 15.7661 19.523 15.9026 19.6236 16.0032C19.7242 16.1038 19.8607 16.1604 20.003 16.1604C20.1453 16.1604 20.2818 16.1038 20.3824 16.0032C20.4831 15.9026 20.5396 15.7661 20.5396 15.6238V10.8132C20.5396 10.6709 20.4831 10.5344 20.3824 10.4338C20.2818 10.3331 20.1453 10.2766 20.003 10.2766C19.8607 10.2766 19.7242 10.3331 19.6236 10.4338C19.523 10.5344 19.4665 10.6709 19.4665 10.8132V15.6238ZM19.9969 19.2194C17.5943 19.9994 15.4862 21.4924 13.9528 23.4997C12.9475 24.8873 12.4109 26.4539 12.8426 27.9896C12.8919 28.1993 12.966 28.4028 13.0585 28.6063H26.9353C27.0249 28.4067 27.0991 28.2005 27.1573 27.9896C27.5828 26.4477 27.0524 24.8873 26.0471 23.4997C24.5137 21.4924 22.3994 19.9994 19.9969 19.2194ZM17.5916 19.0591C18.344 18.6644 19.0964 18.356 19.8118 18.1586C19.9162 18.1186 20.0305 18.1121 20.1387 18.1401C22.8327 18.9716 25.2 20.6232 26.9106 22.8644C28.0947 24.4988 28.7177 26.3799 28.1934 28.2733C28.0888 28.6515 27.9441 29.0174 27.7617 29.3649C27.7196 29.4606 27.6505 29.542 27.5629 29.5989C27.4752 29.6559 27.3728 29.686 27.2683 29.6856H12.7439C12.6434 29.6894 12.5438 29.6647 12.4565 29.6146C12.3693 29.5644 12.2979 29.4907 12.2505 29.4019C12.0615 29.0431 11.9126 28.6646 11.8065 28.2733C11.2884 26.3799 11.9052 24.4988 13.0893 22.8706C14.2365 21.2979 15.9263 19.9534 17.6039 19.0591H17.5916Z" fill="#1B4925"/>
<path fill-rule="evenodd" clip-rule="evenodd" d="M11.8004 28.2733C11.2824 26.3799 11.8991 24.4988 13.0833 22.8706C14.7827 20.6423 17.1315 18.996 19.8058 18.1586C19.912 18.1172 20.0287 18.1108 20.1389 18.1401C22.8329 18.9717 25.2002 20.6232 26.9107 22.8644C28.0949 24.4988 28.7178 26.3799 28.1936 28.2733C28.089 28.6515 27.9442 29.0175 27.7618 29.3649C27.7198 29.4606 27.6507 29.542 27.563 29.5989C27.4754 29.6559 27.373 29.686 27.2684 29.6856H12.7441C12.6435 29.6894 12.5439 29.6647 12.4567 29.6146C12.3694 29.5644 12.298 29.4907 12.2507 29.4019C12.0616 29.0432 11.9066 28.6647 11.8004 28.2733ZM20.0032 16.2097C16.1184 17.4487 12.7081 19.8514 10.2339 23.0926C8.59337 25.3376 7.72992 27.8909 8.42685 30.4195C8.53169 30.8143 8.68588 31.2213 8.87707 31.6222H31.1108C31.302 31.2152 31.45 30.8204 31.561 30.4195C32.2518 27.8909 31.3945 25.3376 29.7601 23.0926C27.2859 19.8514 23.8756 17.4487 19.9908 16.2097H20.0032Z" fill="white"/>
<path fill-rule="evenodd" clip-rule="evenodd" d="M13.953 23.4997C12.9477 24.8874 12.4111 26.4539 12.8428 27.9896C12.8922 28.1993 12.9662 28.4028 13.0587 28.6064H26.9355C27.0251 28.4067 27.0993 28.2006 27.1575 27.9896C27.5831 26.4477 27.0527 24.8874 26.0474 23.4997C24.5139 21.4924 22.4058 19.9995 20.0032 19.2195C17.6007 19.9995 15.4864 21.4924 13.953 23.4997Z" fill="#5AD78C"/>
<path fill-rule="evenodd" clip-rule="evenodd" d="M19.6948 7.98213C20.3053 6.93367 20.034 5.70017 19.2939 4.73805L18.671 3.93628C19.4604 4.04113 19.8613 4.02262 20.5829 4.42968C21.3909 4.89585 21.9807 5.66393 22.2224 6.56494C22.4642 7.46595 22.3381 8.42609 21.8719 9.23413C21.4057 10.0422 20.6376 10.6319 19.7366 10.8737C18.8356 11.1154 17.8755 10.9893 17.0674 10.5231C16.3458 10.1099 16.167 9.7522 15.6736 9.11695L16.685 9.2588C17.8877 9.41915 19.0904 9.0306 19.6948 7.98213Z" fill="black"/>
<path fill-rule="evenodd" clip-rule="evenodd" d="M20.0402 8.17967C19.7023 8.76654 19.1824 9.22731 18.5592 9.49218C17.936 9.75704 17.2434 9.81158 16.5864 9.64753C16.9216 9.99376 17.3326 10.2575 17.7869 10.418C18.2413 10.5785 18.7268 10.6313 19.205 10.5724C19.6833 10.5135 20.1414 10.3444 20.5433 10.0784C20.9451 9.81241 21.2797 9.45681 21.5209 9.03957C21.762 8.62233 21.903 8.15483 21.9328 7.67386C21.9626 7.19288 21.8804 6.71155 21.6926 6.26774C21.5049 5.82392 21.2167 5.42972 20.8508 5.11616C20.4849 4.8026 20.0512 4.57822 19.5838 4.46069C20.5274 5.43515 20.7556 6.95235 20.0464 8.18584L20.0402 8.17967Z" fill="white"/>
</g>
<defs>
<clipPath id="clip0_39_387">
<rect width="32" height="32" fill="white" transform="translate(4 4)"/>
</clipPath>
</defs>
</svg>
