<svg width="40" height="40" viewBox="0 0 40 40" fill="none" xmlns="http://www.w3.org/2000/svg">
<rect width="40" height="40" rx="10" fill="#5AD78C"/>
<path d="M11.5 5C11.3674 5 11.2402 5.05268 11.1465 5.14645C11.0527 5.24021 11 5.36739 11 5.5V20.5C11 20.6326 11.0527 20.7598 11.1465 20.8536C11.2402 20.9473 11.3674 21 11.5 21H26.5C26.6326 21 26.7598 20.9473 26.8535 20.8536C26.9473 20.7598 27 20.6326 27 20.5V5.5L26.992 5.508C26.9931 5.44234 26.9812 5.37711 26.957 5.31604C26.9329 5.25497 26.8969 5.19926 26.8512 5.15208C26.8055 5.10491 26.751 5.0672 26.6908 5.0411C26.6305 5.01501 26.5657 5.00104 26.5 5H11.5ZM12 6H26V20H12V6Z" fill="#1B4925"/>
<path d="M17 20V34H18V20H17ZM20 20V34H21V20H20Z" fill="#1B4925"/>
<path d="M19.1719 7.87793H16.8569V17.8779H18.4289V14.1209H19.1719C20.7429 14.1209 21.5149 13.2489 21.5149 11.6489V10.3489C21.5149 8.74893 20.7429 7.87793 19.1719 7.87793ZM19.1719 9.30693C19.6719 9.30693 19.9429 9.53493 19.9429 10.2489V11.7489C19.9429 12.4639 19.6719 12.6919 19.1719 12.6919H18.4289V9.30793L19.1719 9.30693Z" fill="white"/>
<path fill-rule="evenodd" clip-rule="evenodd" d="M10 31V32H16V31H10ZM7 31V32H9V31H7ZM26 31V32H27V31H26ZM28 31V32H29V31H28ZM23 31V32H25V31H23ZM27 28V29H31V28H27ZM32 28V29H33V28H32Z" fill="white"/>
</svg>
