<svg width="40" height="40" viewBox="0 0 40 40" fill="none" xmlns="http://www.w3.org/2000/svg">
<g id="Group 19">
<rect id="Rectangle 11" width="40" height="40" rx="10" fill="#5AD78C"/>
<g id="toilet">
<path id="Vector" d="M13.5449 25.9588C13.4132 25.9588 13.2869 25.9065 13.1938 25.8134C13.1007 25.7203 13.0483 25.594 13.0483 25.4623V16.0278C13.0483 15.8961 13.1007 15.7698 13.1938 15.6767C13.2869 15.5836 13.4132 15.5312 13.5449 15.5312C13.6766 15.5312 13.8029 15.5836 13.896 15.6767C13.9891 15.7698 14.0414 15.8961 14.0414 16.0278V25.4623C14.0414 25.594 13.9891 25.7203 13.896 25.8134C13.8029 25.9065 13.6766 25.9588 13.5449 25.9588Z" fill="#D7E9F7"/>
<path id="Vector_2" d="M33.9033 18.0139V19.007C33.9041 20.0506 33.6993 21.0842 33.3006 22.0486C32.9019 23.0131 32.317 23.8895 31.5795 24.6279C31.2427 24.9658 30.8754 25.2716 30.4821 25.5416L30.1544 25.7551C28.9512 26.5034 27.5699 26.9163 26.1535 26.951C24.737 26.9858 23.3371 26.6412 22.0987 25.9528C20.8603 25.2645 19.8285 24.2575 19.1102 23.0362C18.392 21.8149 18.0134 20.4238 18.0137 19.007V18.0139C18.0137 17.7505 18.1183 17.4979 18.3045 17.3116C18.4908 17.1254 18.7434 17.0208 19.0068 17.0208H32.9102C33.1736 17.0208 33.4262 17.1254 33.6125 17.3116C33.7987 17.4979 33.9033 17.7505 33.9033 18.0139Z" fill="white"/>
<path id="Vector_3" d="M33.9034 18.0139V19.007C33.9043 20.0506 33.6995 21.0842 33.3007 22.0486C32.902 23.0131 32.3171 23.8895 31.5796 24.6279C31.2429 24.9658 30.8755 25.2716 30.4822 25.5416C29.6654 25.8202 28.8079 25.9611 27.9448 25.9587C25.8377 25.9587 23.8169 25.1216 22.327 23.6317C20.837 22.1417 20 20.121 20 18.0139V17.0208H32.9103C33.1737 17.0208 33.4263 17.1254 33.6126 17.3116C33.7988 17.4979 33.9034 17.7505 33.9034 18.0139Z" fill="white"/>
<path id="Vector_4" d="M32.4934 7.18909L32.3494 8.57944H19.5682L19.4242 7.18909C19.4133 6.91313 19.5113 6.64396 19.6971 6.43961C19.8829 6.23526 20.1415 6.1121 20.4173 6.09668H31.4854C31.7638 6.1083 32.0262 6.22981 32.2151 6.43458C32.4041 6.63935 32.5042 6.91068 32.4934 7.18909Z" fill="#1B4925"/>
<path id="Vector_5" d="M32.3491 8.57935L31.4851 17.0207H20.4319L19.5679 8.57935H32.3491Z" fill="#96A1C3"/>
<path id="Vector_6" d="M29.9311 11.5588H28.3024C28.1931 11.3695 28.0243 11.2215 27.8224 11.1379C27.6204 11.0542 27.3965 11.0395 27.1853 11.0961C26.9741 11.1527 26.7875 11.2774 26.6544 11.4508C26.5214 11.6242 26.4492 11.8367 26.4492 12.0554C26.4492 12.274 26.5214 12.4865 26.6544 12.6599C26.7875 12.8334 26.9741 12.958 27.1853 13.0146C27.3965 13.0712 27.6204 13.0565 27.8224 12.9729C28.0243 12.8892 28.1931 12.7412 28.3024 12.5519H29.9311C30.0628 12.5519 30.1891 12.4996 30.2822 12.4065C30.3753 12.3134 30.4276 12.1871 30.4276 12.0554C30.4276 11.9237 30.3753 11.7974 30.2822 11.7042C30.1891 11.6111 30.0628 11.5588 29.9311 11.5588Z" fill="url(#paint0_linear_39_273)"/>
<path id="Vector_7" d="M32.796 8.57935L32.0313 16.0276L31.9816 16.5242H27.3389C25.6558 16.5242 24.0417 15.8556 22.8516 14.6655C21.6615 13.4754 20.9929 11.8613 20.9929 10.1782V8.57935H32.796Z" fill="white"/>
<path id="Vector_8" d="M30.259 33.8737H21.6587C21.5142 33.8755 21.3712 33.8457 21.2394 33.7865C21.1077 33.7272 20.9904 33.64 20.8959 33.5308C20.8013 33.4215 20.7317 33.293 20.692 33.1542C20.6522 33.0153 20.6432 32.8694 20.6656 32.7267L21.753 25.775C22.1284 26.0012 22.522 26.1955 22.9299 26.356C24.0958 26.8342 25.3586 27.0291 26.6145 26.9246C27.8705 26.8202 29.0837 26.4194 30.1547 25.7551L31.1925 32.4139L31.2421 32.7267C31.2644 32.8686 31.2556 33.0136 31.2164 33.1517C31.1772 33.2899 31.1085 33.4179 31.015 33.5269C30.9216 33.636 30.8056 33.7234 30.6751 33.7833C30.5445 33.8432 30.4026 33.874 30.259 33.8737Z" fill="white"/>
<path id="Vector_9" d="M15.0344 6.09668H7.08954C6.54106 6.09668 6.09644 6.54131 6.09644 7.08978V15.0346C6.09644 15.5831 6.54106 16.0277 7.08954 16.0277H15.0344C15.5828 16.0277 16.0275 15.5831 16.0275 15.0346V7.08978C16.0275 6.54131 15.5828 6.09668 15.0344 6.09668Z" fill="white"/>
<path id="Vector_10" d="M13.5449 11.0621C13.5461 11.477 13.4419 11.8853 13.242 12.2489C13.0576 12.5883 12.7966 12.8801 12.4797 13.101C12.1627 13.3219 11.7986 13.4657 11.4163 13.5211C11.034 13.5766 10.6441 13.542 10.2775 13.4202C9.91086 13.2984 9.57773 13.0928 9.30458 12.8196C9.03142 12.5465 8.82577 12.2134 8.70399 11.8468C8.58221 11.4802 8.54766 11.0902 8.60308 10.7079C8.6585 10.3256 8.80236 9.96148 9.02323 9.64455C9.2441 9.32762 9.53587 9.0666 9.87535 8.88225C10.2389 8.68236 10.6472 8.57813 11.0621 8.57936C11.7206 8.57936 12.3521 8.84093 12.8177 9.30654C13.2833 9.77215 13.5449 10.4036 13.5449 11.0621Z" fill="#96A1C3"/>
<path id="Vector_11" d="M13.5449 11.0621C13.5462 11.477 13.4419 11.8853 13.242 12.2489C12.8785 12.4488 12.4701 12.553 12.0553 12.5518C11.3968 12.5518 10.7653 12.2902 10.2997 11.8246C9.8341 11.359 9.57252 10.7275 9.57252 10.069C9.57129 9.65415 9.67552 9.24578 9.87542 8.88225C10.2389 8.68236 10.6473 8.57813 11.0622 8.57936C11.7206 8.57936 12.3521 8.84093 12.8178 9.30654C13.2834 9.77215 13.5449 10.4036 13.5449 11.0621Z" fill="#CCD3EB"/>
<path id="Vector_12" d="M13.5449 27.9449C14.0933 27.9449 14.538 27.5003 14.538 26.9518C14.538 26.4034 14.0933 25.9587 13.5449 25.9587C12.9964 25.9587 12.5518 26.4034 12.5518 26.9518C12.5518 27.5003 12.9964 27.9449 13.5449 27.9449Z" fill="white"/>
<path id="Vector_13" d="M33.9033 16.5242H32.0363L32.9847 7.23872C32.9871 7.22226 32.9871 7.20552 32.9847 7.18906C32.9941 6.78183 32.8433 6.38716 32.5647 6.08999C32.2861 5.79282 31.902 5.61691 31.495 5.6001H20.4318C20.0249 5.61691 19.6407 5.79282 19.3621 6.08999C19.0835 6.38716 18.9327 6.78183 18.9422 7.18906C18.9397 7.20552 18.9397 7.22226 18.9422 7.23872L19.8807 16.5242H18.0136C17.8819 16.5242 17.7556 16.5765 17.6625 16.6697C17.5694 16.7628 17.5171 16.8891 17.5171 17.0208V19.007C17.5178 20.398 17.8622 21.7673 18.5197 22.9931C19.1772 24.2189 20.1274 25.2632 21.2859 26.0332L19.9998 33.8241C19.9885 33.8954 19.9928 33.9683 20.0126 34.0378C20.0323 34.1072 20.0669 34.1716 20.1141 34.2263C20.1612 34.2814 20.2199 34.3256 20.2859 34.3556C20.352 34.3856 20.4238 34.4008 20.4964 34.4001H31.4205C31.4923 34.4001 31.5631 34.3845 31.6283 34.3545C31.6934 34.3245 31.7513 34.2808 31.7979 34.2263C31.8451 34.1716 31.8797 34.1072 31.8994 34.0378C31.9191 33.9683 31.9235 33.8954 31.9121 33.8241L30.631 26.0332C31.7895 25.2632 32.7398 24.2189 33.3973 22.9931C34.0548 21.7673 34.3992 20.398 34.3998 19.007V17.0208C34.3998 16.8891 34.3475 16.7628 34.2544 16.6697C34.1613 16.5765 34.035 16.5242 33.9033 16.5242ZM20.4318 6.5932H31.4851C31.626 6.60706 31.7562 6.67461 31.8486 6.78184C31.9411 6.88908 31.9887 7.02779 31.9816 7.1692L31.9171 8.08285H19.9998L19.9055 7.1692C19.9022 7.0968 19.9131 7.02446 19.9378 6.95631C19.9625 6.88815 20.0003 6.82554 20.0492 6.77203C20.0981 6.71853 20.1571 6.6752 20.2227 6.64451C20.2884 6.61382 20.3594 6.59639 20.4318 6.5932ZM20.119 9.07596H31.7979L31.0382 16.5242H20.8787L20.119 9.07596ZM30.8346 33.407H21.0823L22.2045 26.5595C23.3696 27.144 24.655 27.4483 25.9585 27.4483C27.2619 27.4483 28.5473 27.144 29.7124 26.5595L30.8346 33.407ZM33.4067 19.007C33.4067 20.9824 32.622 22.8769 31.2252 24.2737C29.8284 25.6705 27.9339 26.4553 25.9585 26.4553C23.9831 26.4553 22.0886 25.6705 20.6917 24.2737C19.2949 22.8769 18.5102 20.9824 18.5102 19.007V17.5173H33.4067V19.007Z" fill="#1B4925"/>
<path id="Vector_14" d="M29.9311 11.5587H28.3024C28.1931 11.3694 28.0244 11.2214 27.8224 11.1378C27.6205 11.0541 27.3965 11.0394 27.1854 11.096C26.9742 11.1526 26.7876 11.2773 26.6545 11.4507C26.5214 11.6241 26.4493 11.8366 26.4493 12.0553C26.4493 12.2739 26.5214 12.4864 26.6545 12.6598C26.7876 12.8333 26.9742 12.9579 27.1854 13.0145C27.3965 13.0711 27.6205 13.0564 27.8224 12.9728C28.0244 12.8891 28.1931 12.7411 28.3024 12.5518H29.9311C30.0628 12.5518 30.1891 12.4995 30.2822 12.4064C30.3754 12.3133 30.4277 12.187 30.4277 12.0553C30.4277 11.9236 30.3754 11.7973 30.2822 11.7041C30.1891 11.611 30.0628 11.5587 29.9311 11.5587ZM15.0346 5.6001H7.08975C6.69467 5.6001 6.31577 5.75704 6.03641 6.03641C5.75704 6.31577 5.6001 6.69467 5.6001 7.08975V8.08285C5.6001 8.21455 5.65241 8.34085 5.74553 8.43397C5.83866 8.52709 5.96496 8.57941 6.09665 8.57941C6.22834 8.57941 6.35464 8.52709 6.44776 8.43397C6.54089 8.34085 6.5932 8.21455 6.5932 8.08285V7.08975C6.5932 6.95806 6.64552 6.83176 6.73864 6.73864C6.83176 6.64552 6.95806 6.5932 7.08975 6.5932H15.0346C15.1663 6.5932 15.2926 6.64552 15.3857 6.73864C15.4788 6.83176 15.5311 6.95806 15.5311 7.08975V15.0346C15.5311 15.1663 15.4788 15.2926 15.3857 15.3857C15.2926 15.4788 15.1663 15.5311 15.0346 15.5311H7.08975C6.95806 15.5311 6.83176 15.4788 6.73864 15.3857C6.64552 15.2926 6.5932 15.1663 6.5932 15.0346V12.5518C6.5932 12.4201 6.54089 12.2938 6.44776 12.2007C6.35464 12.1076 6.22834 12.0553 6.09665 12.0553C5.96496 12.0553 5.83866 12.1076 5.74553 12.2007C5.65241 12.2938 5.6001 12.4201 5.6001 12.5518V15.0346C5.6001 15.4297 5.75704 15.8086 6.03641 16.0879C6.31577 16.3673 6.69467 16.5242 7.08975 16.5242H13.0484V25.4622C13.046 25.4902 13.046 25.5185 13.0484 25.5466C12.7146 25.6606 12.4321 25.8894 12.2512 26.1923C12.0703 26.4951 12.0027 26.8523 12.0605 27.2003C12.1183 27.5483 12.2978 27.8645 12.5669 28.0926C12.836 28.3207 13.1773 28.4459 13.53 28.4459C13.8828 28.4459 14.2241 28.3207 14.4932 28.0926C14.7623 27.8645 14.9417 27.5483 14.9995 27.2003C15.0574 26.8523 14.9898 26.4951 14.8089 26.1923C14.628 25.8894 14.3455 25.6606 14.0117 25.5466C14.0241 25.5194 14.0341 25.4911 14.0415 25.4622V16.5242H15.0346C15.4297 16.5242 15.8086 16.3673 16.0879 16.0879C16.3673 15.8086 16.5242 15.4297 16.5242 15.0346V7.08975C16.5242 6.69467 16.3673 6.31577 16.0879 6.03641C15.8086 5.75704 15.4297 5.6001 15.0346 5.6001ZM13.5449 27.4484C13.4467 27.4484 13.3507 27.4192 13.2691 27.3647C13.1874 27.3101 13.1238 27.2326 13.0862 27.1418C13.0486 27.0511 13.0388 26.9513 13.0579 26.8549C13.0771 26.7586 13.1244 26.6701 13.1938 26.6007C13.2633 26.5312 13.3517 26.484 13.4481 26.4648C13.5444 26.4456 13.6442 26.4555 13.7349 26.4931C13.8257 26.5306 13.9032 26.5943 13.9578 26.6759C14.0124 26.7576 14.0415 26.8536 14.0415 26.9518C14.0415 27.0835 13.9892 27.2098 13.896 27.3029C13.8029 27.396 13.6766 27.4484 13.5449 27.4484Z" fill="#033C59"/>
<path id="Vector_15" d="M6.09665 11.0621C6.22834 11.0621 6.35464 11.0098 6.44776 10.9166C6.54089 10.8235 6.5932 10.6972 6.5932 10.5655V10.069C6.5932 9.93728 6.54089 9.81098 6.44776 9.71786C6.35464 9.62473 6.22834 9.57242 6.09665 9.57242C5.96496 9.57242 5.83866 9.62473 5.74553 9.71786C5.65241 9.81098 5.6001 9.93728 5.6001 10.069V10.5655C5.6001 10.6972 5.65241 10.8235 5.74553 10.9166C5.83866 11.0098 5.96496 11.0621 6.09665 11.0621ZM14.0415 11.0621C14.0415 10.4728 13.8667 9.8968 13.5394 9.40686C13.212 8.91691 12.7467 8.53505 12.2023 8.30955C11.6579 8.08405 11.0589 8.02505 10.4809 8.14001C9.903 8.25497 9.37214 8.53872 8.95548 8.95538C8.53881 9.37205 8.25506 9.90291 8.1401 10.4808C8.02515 11.0588 8.08415 11.6578 8.30964 12.2022C8.53514 12.7466 8.91701 13.2119 9.40695 13.5393C9.8969 13.8666 10.4729 14.0414 11.0622 14.0414C11.8523 14.0414 12.6101 13.7275 13.1689 13.1688C13.7276 12.61 14.0415 11.8522 14.0415 11.0621ZM9.07596 11.0621C9.07596 10.6692 9.19245 10.2852 9.4107 9.9586C9.62894 9.63197 9.93915 9.37739 10.3021 9.22706C10.665 9.07673 11.0644 9.03739 11.4497 9.11403C11.8349 9.19067 12.1889 9.37984 12.4666 9.65761C12.7444 9.93539 12.9336 10.2893 13.0102 10.6746C13.0868 11.0599 13.0475 11.4592 12.8972 11.8222C12.7469 12.1851 12.4923 12.4953 12.1656 12.7135C11.839 12.9318 11.455 13.0483 11.0622 13.0483C10.5354 13.0483 10.0302 12.839 9.65771 12.4665C9.28522 12.094 9.07596 11.5888 9.07596 11.0621Z" fill="#033C59"/>
</g>
</g>
<defs>
<linearGradient id="paint0_linear_39_273" x1="26.4552" y1="12.0554" x2="30.4276" y2="12.0554" gradientUnits="userSpaceOnUse">
<stop stop-color="#54A5FF"/>
<stop offset="1" stop-color="#8AD3FE"/>
</linearGradient>
</defs>
</svg>
